<svg xmlns="http://www.w3.org/2000/svg" viewBox="0 0 128 128" role="img" aria-label="B#D%L@#4H!I">
  <defs>
    <linearGradient id="bg" x1="0%" y1="0%" x2="100%" y2="100%">
      <stop offset="0%" style="stop-color:#fce7f3"/>
      <stop offset="100%" style="stop-color:#fbcfe8"/>
    </linearGradient>
  </defs>
  <circle cx="64" cy="64" r="64" fill="url(#bg)"/>
  <path
    fill="#ec4899"
    d="M64 98c-1.2 0-2.4-.4-3.3-1.2C44 82.5 28 68.2 28 52c0-9.8 7.9-17.8 17.6-17.8 6.8 0 12.8 3.9 15.7 9.7 1.1 2.1 4 2.1 5.1 0 2.9-5.8 8.9-9.7 15.7-9.7C91.1 34.2 99 42.2 99 52c0 16.2-16 30.5-32.7 44.8-.9.8-2.1 1.2-3.3 1.2z"
  />
</svg>
